<svg width="20" height="22" viewBox="0 0 20 22" fill="none" xmlns="http://www.w3.org/2000/svg">
<path fill-rule="evenodd" clip-rule="evenodd" d="M16.7071 7.79633C16.7071 9.05226 17.039 9.79253 17.7695 10.6456C18.3231 11.2741 18.5 12.0808 18.5 12.956C18.5 13.8302 18.2128 14.6601 17.6373 15.3339C16.884 16.1417 15.8215 16.6573 14.7372 16.747C13.1659 16.8809 11.5937 16.9937 10.0005 16.9937C8.40634 16.9937 6.83505 16.9263 5.26375 16.747C4.17846 16.6573 3.11602 16.1417 2.36367 15.3339C1.78822 14.6601 1.5 13.8302 1.5 12.956C1.5 12.0808 1.6779 11.2741 2.23049 10.6456C2.98384 9.79253 3.29392 9.05226 3.29392 7.79633V7.3703C3.29392 5.68834 3.71333 4.58852 4.577 3.51186C5.86106 1.9417 7.91935 1 9.95577 1H10.0452C12.1254 1 14.2502 1.98702 15.5125 3.62466C16.3314 4.67916 16.7071 5.73265 16.7071 7.3703V7.79633ZM7.07367 19.0608C7.07367 18.5573 7.53582 18.3266 7.96318 18.2279C8.46309 18.1222 11.5093 18.1222 12.0092 18.2279C12.4366 18.3266 12.8987 18.5573 12.8987 19.0608C12.8738 19.5402 12.5926 19.9653 12.204 20.2352C11.7001 20.628 11.1088 20.8767 10.4906 20.9664C10.1487 21.0107 9.81276 21.0117 9.48279 20.9664C8.86362 20.8767 8.27227 20.628 7.76938 20.2342C7.37978 19.9653 7.09852 19.5402 7.07367 19.0608Z" fill="white"/>
<path d="M17.7695 10.6456L17.1998 11.1335L17.2067 11.1413L17.7695 10.6456ZM17.6373 15.3339L18.1858 15.8455L18.197 15.8335L18.2076 15.821L17.6373 15.3339ZM14.7372 16.747L14.6755 15.9995L14.6735 15.9997L14.7372 16.747ZM5.26375 16.747L5.34877 16.0018L5.33715 16.0005L5.32549 15.9995L5.26375 16.747ZM2.36367 15.3339L1.79335 15.821L1.80384 15.8333L1.81485 15.8451L2.36367 15.3339ZM2.23049 10.6456L1.66832 10.1491L1.66725 10.1504L2.23049 10.6456ZM4.577 3.51186L3.99639 3.03705L3.99196 3.04257L4.577 3.51186ZM15.5125 3.62466L14.9184 4.08252L14.9201 4.08469L15.5125 3.62466ZM7.96318 18.2279L7.80793 17.494L7.7944 17.4971L7.96318 18.2279ZM7.07367 19.0608H6.32367V19.0803L6.32468 19.0997L7.07367 19.0608ZM12.0092 18.2279L12.178 17.497L12.1644 17.4941L12.0092 18.2279ZM12.8987 19.0608L13.6477 19.0997L13.6487 19.0803V19.0608H12.8987ZM12.204 20.2352L11.7761 19.6192L11.7592 19.631L11.7429 19.6437L12.204 20.2352ZM10.4906 20.9664L10.587 21.7102L10.5982 21.7086L10.4906 20.9664ZM9.48279 20.9664L9.37534 21.7087L9.38074 21.7094L9.48279 20.9664ZM7.76938 20.2342L8.23178 19.6437L8.214 19.6298L8.19542 19.6169L7.76938 20.2342ZM18.3392 10.1578C18.0072 9.77009 17.797 9.44419 17.6635 9.10046C17.5307 8.75858 17.4571 8.35589 17.4571 7.79633H15.9571C15.9571 8.4927 16.0495 9.08811 16.2653 9.64361C16.4803 10.1973 16.8013 10.668 17.1998 11.1334L18.3392 10.1578ZM19.25 12.956C19.25 11.9899 19.0558 10.9712 18.3323 10.1499L17.2067 11.1413C17.5904 11.5769 17.75 12.1717 17.75 12.956H19.25ZM18.2076 15.821C18.9054 15.004 19.25 13.9989 19.25 12.956H17.75C17.75 13.6616 17.5202 14.3162 17.067 14.8469L18.2076 15.821ZM14.799 17.4944C16.071 17.3893 17.3064 16.7884 18.1858 15.8455L17.0889 14.8224C16.4616 15.495 15.5721 15.9254 14.6755 15.9995L14.799 17.4944ZM10.0005 17.7437C11.6269 17.7437 13.2253 17.6286 14.8009 17.4943L14.6735 15.9997C13.1066 16.1333 11.5604 16.2437 10.0005 16.2437V17.7437ZM5.17873 17.4921C6.78482 17.6754 8.38541 17.7437 10.0005 17.7437V16.2437C8.42728 16.2437 6.88528 16.1771 5.34877 16.0018L5.17873 17.4921ZM1.81485 15.8451C2.69351 16.7885 3.92918 17.3893 5.20202 17.4944L5.32549 15.9995C4.42773 15.9254 3.53853 15.4949 2.91248 14.8228L1.81485 15.8451ZM0.75 12.956C0.75 13.9995 1.096 15.0045 1.79335 15.821L2.93398 14.8469C2.48044 14.3158 2.25 13.661 2.25 12.956H0.75ZM1.66725 10.1504C0.945519 10.9712 0.75 11.9892 0.75 12.956H2.25C2.25 12.1724 2.41028 11.5769 2.79373 11.1408L1.66725 10.1504ZM2.54392 7.79633C2.54392 8.36159 2.47424 8.76427 2.34424 9.104C2.21435 9.44346 2.00678 9.76587 1.66832 10.1491L2.79266 11.142C3.20754 10.6722 3.53169 10.198 3.74518 9.64007C3.95856 9.08242 4.04392 8.487 4.04392 7.79633H2.54392ZM2.54392 7.3703V7.79633H4.04392V7.3703H2.54392ZM3.99196 3.04257C3.01674 4.25829 2.54392 5.52549 2.54392 7.3703H4.04392C4.04392 5.85118 4.40992 4.91875 5.16203 3.98116L3.99196 3.04257ZM9.95577 0.25C7.70317 0.25 5.42843 1.286 3.99642 3.03707L5.15757 3.98665C6.2937 2.59739 8.13554 1.75 9.95577 1.75V0.25ZM10.0452 0.25H9.95577V1.75H10.0452V0.25ZM16.1065 3.16682C14.6935 1.33358 12.3432 0.25 10.0452 0.25V1.75C11.9075 1.75 13.807 2.64046 14.9184 4.08251L16.1065 3.16682ZM17.4571 7.3703C17.4571 5.58109 17.0348 4.36211 16.1048 3.16464L14.9201 4.08469C15.628 4.99622 15.9571 5.88422 15.9571 7.3703H17.4571ZM17.4571 7.79633V7.3703H15.9571V7.79633H17.4571ZM7.7944 17.4971C7.52836 17.5586 7.18566 17.6739 6.89438 17.9031C6.57817 18.152 6.32367 18.5396 6.32367 19.0608H7.82367C7.82367 19.0547 7.82381 19.0672 7.81468 19.0844C7.80727 19.0983 7.80384 19.0962 7.82195 19.082C7.84139 19.0667 7.87693 19.0444 7.93395 19.0205C7.99021 18.9969 8.05727 18.9759 8.13196 18.9587L7.7944 17.4971ZM12.1644 17.4941C11.9635 17.4517 11.6096 17.4315 11.2636 17.4189C10.8885 17.4053 10.4358 17.3986 9.98619 17.3986C9.53658 17.3986 9.08387 17.4053 8.70873 17.4189C8.36274 17.4315 8.00885 17.4517 7.80796 17.4941L8.1184 18.9617C8.117 18.962 8.13224 18.9589 8.17186 18.9543C8.20871 18.9501 8.25669 18.9456 8.31618 18.9411C8.43522 18.9322 8.58677 18.9243 8.76321 18.9179C9.11545 18.9051 9.54927 18.8986 9.98619 18.8986C10.4231 18.8986 10.8569 18.9051 11.2092 18.9179C11.3856 18.9243 11.5372 18.9322 11.6562 18.9411C11.7157 18.9456 11.7637 18.9501 11.8005 18.9543C11.8401 18.9589 11.8554 18.962 11.854 18.9617L12.1644 17.4941ZM13.6487 19.0608C13.6487 18.5396 13.3942 18.152 13.078 17.9031C12.7867 17.6739 12.444 17.5586 12.178 17.4971L11.8404 18.9587C11.9151 18.9759 11.9822 18.9969 12.0384 19.0205C12.0954 19.0444 12.131 19.0667 12.1504 19.082C12.1685 19.0962 12.1651 19.0983 12.1577 19.0844C12.1486 19.0672 12.1487 19.0547 12.1487 19.0608H13.6487ZM12.6318 20.8512C13.1728 20.4754 13.6086 19.8536 13.6477 19.0997L12.1497 19.022C12.1391 19.2269 12.0124 19.4551 11.7761 19.6192L12.6318 20.8512ZM10.5982 21.7086C11.3442 21.6004 12.0576 21.3002 12.6651 20.8267L11.7429 19.6437C11.3426 19.9557 10.8733 20.1531 10.3829 20.2241L10.5982 21.7086ZM9.38074 21.7094C9.781 21.7644 10.1838 21.7624 10.587 21.7102L10.3942 20.2226C10.1135 20.259 9.84451 20.259 9.58485 20.2234L9.38074 21.7094ZM7.30698 20.8247C7.91425 21.3002 8.62832 21.6005 9.37534 21.7086L9.59025 20.2241C9.09891 20.153 8.63029 19.9557 8.23178 19.6437L7.30698 20.8247ZM6.32468 19.0997C6.36376 19.8536 6.79975 20.4762 7.34333 20.8514L8.19542 19.6169C7.95982 19.4543 7.83328 19.2268 7.82267 19.022L6.32468 19.0997Z" fill="#333333"/>
</svg>
