<svg width="20" height="20" viewBox="0 0 20 20" fill="none" xmlns="http://www.w3.org/2000/svg">
<path fill-rule="evenodd" clip-rule="evenodd" d="M2.79432 5.05581C2.79432 3.80681 3.80732 2.79381 5.05532 2.79381H6.08432C6.68032 2.79381 7.25332 2.55781 7.67732 2.13681L8.39632 1.41681C9.27732 0.531807 10.7093 0.527807 11.5943 1.40881L11.6033 1.41681L12.3233 2.13681C12.7463 2.55781 13.3193 2.79381 13.9163 2.79381H14.9443C16.1933 2.79381 17.2063 3.80681 17.2063 5.05581V6.08281C17.2063 6.68081 17.4423 7.25281 17.8633 7.67681L18.5833 8.39681C19.4683 9.27781 19.4733 10.7088 18.5923 11.5948L18.5833 11.6038L17.8633 12.3238C17.4423 12.7458 17.2063 13.3198 17.2063 13.9158V14.9448C17.2063 16.1938 16.1933 17.2058 14.9443 17.2058H13.9163C13.3193 17.2058 12.7463 17.4428 12.3233 17.8638L11.6033 18.5828C10.7233 19.4688 9.29132 19.4728 8.40532 18.5918C8.40232 18.5888 8.39932 18.5858 8.39632 18.5828L7.67732 17.8638C7.25332 17.4428 6.68032 17.2058 6.08432 17.2058H5.05532C3.80732 17.2058 2.79432 16.1938 2.79432 14.9448V13.9158C2.79432 13.3198 2.55732 12.7458 2.13632 12.3238L1.41732 11.6038C0.531317 10.7228 0.527317 9.29081 1.40832 8.40581L1.41732 8.39681L2.13632 7.67681C2.55732 7.25281 2.79432 6.68081 2.79432 6.08281V5.05581Z" fill="#333333"/>
<path d="M2.79432 5.05581C2.79432 3.80681 3.80732 2.79381 5.05532 2.79381H6.08432C6.68032 2.79381 7.25332 2.55781 7.67732 2.13681L8.39632 1.41681C9.27732 0.531807 10.7093 0.527807 11.5943 1.40881L11.6033 1.41681L12.3233 2.13681C12.7463 2.55781 13.3193 2.79381 13.9163 2.79381H14.9443C16.1933 2.79381 17.2063 3.80681 17.2063 5.05581V6.08281C17.2063 6.68081 17.4423 7.25281 17.8633 7.67681L18.5833 8.39681C19.4683 9.27781 19.4733 10.7088 18.5923 11.5948L18.5833 11.6038L17.8633 12.3238C17.4423 12.7458 17.2063 13.3198 17.2063 13.9158V14.9448C17.2063 16.1938 16.1933 17.2058 14.9443 17.2058H13.9163C13.3193 17.2058 12.7463 17.4428 12.3233 17.8638L11.6033 18.5828C10.7233 19.4688 9.29132 19.4728 8.40532 18.5918C8.40232 18.5888 8.39932 18.5858 8.39632 18.5828L7.67732 17.8638C7.25332 17.4428 6.68032 17.2058 6.08432 17.2058H5.05532C3.80732 17.2058 2.79432 16.1938 2.79432 14.9448V13.9158C2.79432 13.3198 2.55732 12.7458 2.13632 12.3238L1.41732 11.6038C0.531317 10.7228 0.527317 9.29081 1.40832 8.40581L1.41732 8.39681L2.13632 7.67681C2.55732 7.25281 2.79432 6.68081 2.79432 6.08281V5.05581" stroke="#333333" stroke-width="1.5" stroke-linecap="round" stroke-linejoin="round"/>
<path d="M7.42999 12.5695L12.57 7.4295" stroke="white" stroke-width="1.5" stroke-linecap="round" stroke-linejoin="round"/>
<path d="M12.5667 13.3224C12.3667 13.3224 12.1767 13.2424 12.0367 13.1024C11.9667 13.0324 11.9167 12.9424 11.8767 12.8524C11.8367 12.7624 11.8167 12.6734 11.8167 12.5724C11.8167 12.4724 11.8367 12.3724 11.8767 12.2824C11.9167 12.1924 11.9667 12.1124 12.0367 12.0424C12.3167 11.7624 12.8167 11.7624 13.0967 12.0424C13.1667 12.1124 13.2267 12.1924 13.2667 12.2824C13.2967 12.3724 13.3167 12.4724 13.3167 12.5724C13.3167 12.6734 13.2967 12.7624 13.2667 12.8524C13.2267 12.9424 13.1667 13.0324 13.0967 13.1024C12.9567 13.2424 12.7667 13.3224 12.5667 13.3224Z" fill="white"/>
<path d="M7.42664 8.1828C7.32664 8.1828 7.23664 8.1618 7.14664 8.1218C7.05664 8.0818 6.96664 8.0328 6.89664 7.9628C6.82664 7.8828 6.77664 7.8028 6.73664 7.7128C6.69664 7.6218 6.67664 7.5328 6.67664 7.4328C6.67664 7.3318 6.69664 7.2328 6.73664 7.1428C6.77664 7.0528 6.82664 6.9628 6.89664 6.9028C7.18664 6.6218 7.67664 6.6218 7.95664 6.9028C8.09664 7.0418 8.17664 7.2328 8.17664 7.4328C8.17664 7.5328 8.16664 7.6218 8.12664 7.7128C8.08664 7.8028 8.02664 7.8828 7.95664 7.9628C7.88664 8.0328 7.80664 8.0818 7.71664 8.1218C7.62664 8.1618 7.52664 8.1828 7.42664 8.1828Z" fill="white"/>
</svg>
